
<svg width="96" height="96" viewBox="0 0 512 512" xmlns="http://www.w3.org/2000/svg">
  <defs>
    <linearGradient id="gradAdmin" x1="0%" y1="0%" x2="100%" y2="100%">
      <stop offset="0%" style="stop-color:#6d28d9;stop-opacity:1" />
      <stop offset="100%" style="stop-color:#8b5cf6;stop-opacity:1" />
    </linearGradient>
  </defs>

  <!-- Background -->
  <rect width="512" height="512" rx="110" fill="url(#gradAdmin)"/>

  <!-- Engrenagem grande -->
  <g transform="translate(256, 220)">
    <circle cx="0" cy="0" r="80" fill="white" opacity="0.95"/>
    <circle cx="0" cy="0" r="40" fill="url(#gradAdmin)"/>

    <!-- Dentes da engrenagem -->
    <rect x="-15" y="-95" width="30" height="30" rx="5" fill="white" opacity="0.95"/>
    <rect x="-15" y="65" width="30" height="30" rx="5" fill="white" opacity="0.95"/>
    <rect x="-95" y="-15" width="30" height="30" rx="5" fill="white" opacity="0.95"/>
    <rect x="65" y="-15" width="30" height="30" rx="5" fill="white" opacity="0.95"/>

    <rect x="-70" y="-70" width="25" height="25" rx="5" fill="white" opacity="0.9" transform="rotate(45 -70 -70)"/>
    <rect x="70" y="-70" width="25" height="25" rx="5" fill="white" opacity="0.9" transform="rotate(-45 70 -70)"/>
    <rect x="-70" y="70" width="25" height="25" rx="5" fill="white" opacity="0.9" transform="rotate(-45 -70 70)"/>
    <rect x="70" y="70" width="25" height="25" rx="5" fill="white" opacity="0.9" transform="rotate(45 70 70)"/>
  </g>

  <!-- Engrenagem pequena -->
  <g transform="translate(360, 340)">
    <circle cx="0" cy="0" r="45" fill="white" opacity="0.9"/>
    <circle cx="0" cy="0" r="22" fill="url(#gradAdmin)"/>

    <rect x="-8" y="-50" width="16" height="16" rx="3" fill="white" opacity="0.9"/>
    <rect x="-8" y="34" width="16" height="16" rx="3" fill="white" opacity="0.9"/>
    <rect x="-50" y="-8" width="16" height="16" rx="3" fill="white" opacity="0.9"/>
    <rect x="34" y="-8" width="16" height="16" rx="3" fill="white" opacity="0.9"/>
  </g>
</svg>
